/* XPM */
static char * AppIcon_xpm[] = {
"42 34 294 2",
"  	c None",
". 	c #555C6B",
"+ 	c #5E6E8B",
"@ 	c #63728D",
"# 	c #6E7B93",
"$ 	c #65748F",
"% 	c #5E6F8D",
"& 	c #5E6D8B",
"* 	c #65738E",
"= 	c #66748E",
"- 	c #63718D",
"; 	c #5E6D8C",
"> 	c #5F6E8C",
", 	c #777E8C",
"' 	c #787F8F",
") 	c #949498",
"! 	c #9D9D9D",
"~ 	c #9F9F9F",
"{ 	c #999B99",
"] 	c #9E9D9D",
"^ 	c #9B9A98",
"/ 	c #9D9E9D",
"( 	c #9E9E9E",
"_ 	c #A09F9E",
": 	c #9A9A9B",
"< 	c #9E9E9D",
"[ 	c #626261",
"} 	c #5C6B88",
"| 	c #5C80BE",
"1 	c #839FCF",
"2 	c #63718A",
"3 	c #6A7FAA",
"4 	c #5A80BD",
"5 	c #5C7DBD",
"6 	c #B3C3E1",
"7 	c #98ADD5",
"8 	c #7490C7",
"9 	c #869FCF",
"0 	c #6D8AC5",
"a 	c #6C8AC4",
"b 	c #819ACD",
"c 	c #5F7FBE",
"d 	c #6382C0",
"e 	c #CED8EC",
"f 	c #8BA2D1",
"g 	c #6E8BC5",
"h 	c #6584C1",
"i 	c #6584BD",
"j 	c #8FA5C1",
"k 	c #96A9C6",
"l 	c #DCDEDE",
"m 	c #DEDEDE",
"n 	c #E1E1E1",
"o 	c #9A9897",
"p 	c #A59569",
"q 	c #BCBCBE",
"r 	c #E0E0E0",
"s 	c #9C9996",
"t 	c #958B69",
"u 	c #BABABA",
"v 	c #E2E2E2",
"w 	c #A4A193",
"x 	c #958B61",
"y 	c #B9BAB8",
"z 	c #7F7F7E",
"A 	c #586783",
"B 	c #4D73AD",
"C 	c #6584B0",
"D 	c #9F9731",
"E 	c #79816C",
"F 	c #436698",
"G 	c #4D71AC",
"H 	c #7E98C3",
"I 	c #A7B9D6",
"J 	c #9BAFD1",
"K 	c #AABBD7",
"L 	c #95AACD",
"M 	c #B6C5DD",
"N 	c #A8B9D6",
"O 	c #99AECF",
"P 	c #5B7CB2",
"Q 	c #8CA3C9",
"R 	c #97ACCE",
"S 	c #96ABCE",
"T 	c #A4B6D5",
"U 	c #6B89BB",
"V 	c #5C7BAB",
"W 	c #7E90AD",
"X 	c #8597B2",
"Y 	c #C4C4C4",
"Z 	c #C1C2C1",
"` 	c #857F6C",
" .	c #B0963C",
"..	c #969591",
"+.	c #BEBFBE",
"@.	c #888573",
"#.	c #BA9F3C",
"$.	c #959590",
"%.	c #C3C3C3",
"&.	c #89836F",
"*.	c #AF9A3E",
"=.	c #919192",
"-.	c #C9C9C9",
";.	c #828281",
">.	c #53647E",
",.	c #3D669B",
"'.	c #3C6294",
").	c #496084",
"!.	c #3C547A",
"~.	c #3B6094",
"{.	c #3D659B",
"].	c #5D7EAB",
"^.	c #5F80AC",
"/.	c #4E72A3",
"(.	c #6B89B2",
"_.	c #4D71A3",
":.	c #5578A7",
"<.	c #6584AF",
"[.	c #3E659B",
"}.	c #496EA1",
"|.	c #5577A7",
"1.	c #6786B0",
"2.	c #4B70A2",
"3.	c #476DA0",
"4.	c #43679B",
"5.	c #667893",
"6.	c #6B7E98",
"7.	c #A5A5A6",
"8.	c #A6A6A6",
"9.	c #A5A5A5",
"0.	c #909190",
"a.	c #888888",
"b.	c #919091",
"c.	c #A5A5A3",
"d.	c #909092",
"e.	c #888483",
"f.	c #929191",
"g.	c #878787",
"h.	c #B3B3B3",
"i.	c #858584",
"j.	c #51617A",
"k.	c #687586",
"l.	c #8C939C",
"m.	c #8C939D",
"n.	c #8C949E",
"o.	c #95989C",
"p.	c #95989B",
"q.	c #9A9A9A",
"r.	c #888887",
"s.	c #4F5D75",
"t.	c #8C9199",
"u.	c #CCCCCC",
"v.	c #AFAFAF",
"w.	c #7B7E85",
"x.	c #9C9D9F",
"y.	c #959594",
"z.	c #A3A3A2",
"A.	c #A8A8A8",
"B.	c #ABABAB",
"C.	c #ACACAC",
"D.	c #A9A9A9",
"E.	c #B0B0B0",
"F.	c #E4E4E4",
"G.	c #D6D6D6",
"H.	c #DBDBDB",
"I.	c #D0D0D0",
"J.	c #D7D7D7",
"K.	c #D3D3D3",
"L.	c #9C9C9C",
"M.	c #CDCDCD",
"N.	c #C7C7C7",
"O.	c #C1C1C1",
"P.	c #9B9B9B",
"Q.	c #D8D8D8",
"R.	c #CACACA",
"S.	c #C2C2C2",
"T.	c #C5C5C5",
"U.	c #D2D2D2",
"V.	c #BEBEBE",
"W.	c #BCBCBC",
"X.	c #BDBDBD",
"Y.	c #C8C8C8",
"Z.	c #CECECE",
"`.	c #BBBBBB",
" +	c #ADADAD",
".+	c #999999",
"++	c #989898",
"@+	c #B7B7B7",
"#+	c #959595",
"$+	c #969696",
"%+	c #BECCE3",
"&+	c #ACBDDC",
"*+	c #8AA2CD",
"=+	c #9EB2D6",
"-+	c #A9BBDA",
";+	c #A2B5D8",
">+	c #94AAD1",
",+	c #93AAD1",
"'+	c #FFFFFF",
")+	c #88A1CC",
"!+	c #A5B8D9",
"~+	c #7692C5",
"{+	c #839CCA",
"]+	c #8DA5CF",
"^+	c #B7C6E1",
"/+	c #AFC0DD",
"(+	c #6E8CC1",
"_+	c #A0B4D7",
":+	c #A1B4D7",
"<+	c #94AAD2",
"[+	c #869FCB",
"}+	c #9AAFD4",
"|+	c #98ADD3",
"1+	c #99AED4",
"2+	c #BBC9E2",
"3+	c #A9BADA",
"4+	c #5175B5",
"5+	c #B9C8E1",
"6+	c #BCCAE3",
"7+	c #D4DDED",
"8+	c #C1CEE5",
"9+	c #C6D2E7",
"0+	c #9AA0AA",
"a+	c #8493AB",
"b+	c #8492AB",
"c+	c #6D798D",
"d+	c #8793A7",
"e+	c #5A7AAF",
"f+	c #697FA3",
"g+	c #6A81A5",
"h+	c #667CA0",
"i+	c #59729B",
"j+	c #324769",
"k+	c #B8B8B8",
"l+	c #B2B2B2",
"m+	c #B9B9B9",
"n+	c #516D9A",
"o+	c #DDDDDD",
"p+	c #DADADA",
"q+	c #7B818C",
"r+	c #314667",
"s+	c #B4B4B4",
"t+	c #DCDCDC",
"u+	c #CFCFCF",
"v+	c #979797",
"w+	c #4F6B99",
"x+	c #676767",
"y+	c #696969",
"z+	c #535353",
"A+	c #CBCBCB",
"B+	c #727983",
"C+	c #314566",
"D+	c #AEAEAE",
"E+	c #7C7C7C",
"F+	c #AAAAAA",
"G+	c #D9D9D9",
"H+	c #555555",
"I+	c #898989",
"J+	c #727883",
"K+	c #6A6A6A",
"L+	c #6D6D6D",
"M+	c #333333",
"N+	c #575757",
"O+	c #4F4F4F",
"P+	c #4B4B4B",
"Q+	c #4A4A4A",
"R+	c #A7A7A7",
"S+	c #4E6A98",
"T+	c #717782",
"U+	c #B5B5B5",
"V+	c #8692A6",
"W+	c #4D6B9E",
"X+	c #4E5F7A",
"Y+	c #4A5B76",
"Z+	c #4A5A75",
"`+	c #495A74",
" @	c #455979",
".@	c #304465",
"+@	c #8F8F8F",
"@@	c #8E8E8E",
"#@	c #91969E",
"$@	c #5A6371",
"%@	c #5A626F",
"&@	c #5F6570",
"*@	c #9A9A99",
"=@	c #AFAFAE",
"-@	c #A6A6A5",
";@	c #888989",
">@	c #6A6E6E",
",@	c #888B8A",
"'@	c #898B8A",
")@	c #898B8B",
"!@	c #898B8C",
"~@	c #636768",
". + @ # $ % & * = & & & & & & & & - & & & ; ; > , ' ) ! ! ~ { ] ! ~ ^ / ( _ : ] < [ ",
"} | 1 2 3 4 5 6 7 8 9 0 a b 9 c d e d f g h 5 i j k l m n o p q r s t u v w x y n z ",
"A B C D E F G H I J K L M N O P Q R S T U G G V W X Y Y Z `  ...+.@.#.$.%.&.*.=.-.;.",
">.,.'.).!.~.{.].^./.(._.:._.<.[.}.{.|.1.2.3.{.4.5.6.7.8.9.0.a.b.c.d.e.d.9.f.g.0.h.i.",
"j.k.l.m.m.m.n.n.n.n.n.n.n.n.n.n.n.n.n.n.n.n.n.n.o.p.( ~ ~ ~ ( ~ ~ ~ ( ~ ~ ~ ( ~ q.r.",
"s.t.u.u.u.u.u.u.u.u.u.u.u.u.u.u.u.u.u.u.u.u.u.u.u.u.u.u.u.u.u.u.u.u.u.u.u.u.u.u.v.a.",
"w.x.u.u.u.u.u.u.u.u.u.u.u.u.u.u.u.u.u.u.u.u.u.u.u.u.u.u.u.u.u.u.u.u.u.u.u.u.u.u.v.a.",
"y.z.u.u.u.u.u.u.u.u.u.u.u.u.u.u.u.A.B.C.C.C.B.D.E.u.u.u.u.u.u.u.u.u.u.u.u.u.u.u.v.a.",
"y.z.u.u.u.u.u.u.u.u.u.u.u.u.u.u.u.B.F.G.H.I.J.K.L.u.u.u.u.u.u.u.u.u.u.u.u.u.u.u.v.a.",
"y.z.u.u.u.u.u.u.u.u.u.u.u.u.u.u.u.B.r M.K.N.O.u.P.u.u.u.u.u.u.u.u.u.u.u.u.u.u.u.v.a.",
"y.z.u.u.u.u.u.u.u.u.u.u.u.u.u.u.u.B.Q.R.u.S.%.T.P.u.u.u.u.u.u.u.u.u.u.u.u.u.u.u.v.a.",
"y.z.u.u.u.u.u.u.u.u.u.u.u.u.u.u.u.B.r I.u.K.u.M.P.u.u.u.u.u.u.u.u.u.u.u.u.u.u.u.v.a.",
"y.z.u.u.u.u.u.u.u.u.u.u.u.u.u.u.u.B.U.V.%.W.X.Y P.u.u.u.u.u.u.u.u.u.u.u.u.u.u.u.v.a.",
"y.z.u.u.u.u.u.u.u.u.u.u.u.u.u.u.u.B.G.Y.Z.N.%.Y.P.u.u.u.u.u.u.u.u.u.u.u.u.u.u.u.v.a.",
"y.z.u.u.u.u.u.u.u.u.u.u.u.u.u.u.u.A.M.`.X.Y V.X.q.u.u.u.u.u.u.u.u.u.u.u.u.u.u.u.v.a.",
"y.z.u.u.u.u.u.u.u.u.u.u.u.u.u.u.u. +.+.+++.+++++@+u.u.u.u.u.u.u.u.u.u.u.u.u.u.u.v.a.",
"y.z.u.u.u.u.u.u.u.u.u.u.u.u.u.u.u.u.u.u.u.u.u.u.u.u.u.u.u.u.u.u.u.u.u.u.u.u.u.u.v.a.",
"y.z.u.u.u.u.u.u.u.u.u.u.u.u.u.u.u.u.u.u.u.u.u.u.u.u.u.u.u.u.u.u.u.u.u.u.u.u.u.u.v.a.",
"y.z.#+#+#+#+#+#+#+#+#+#+#+#+#+#+#+#+#+#+#+#+#+#+#+#+#+#+#+#+#+#+#+#+#+#+#+#+#+.+v.a.",
"y.z.$+%+&+*+*+*+*+=+-+;+>+,+'+'+'+'+'+'+'+'+'+'+'+'+'+'+'+'+'+'+'+'+'+'+'+'+'+E.v.a.",
"y.z.$+)+!+~+{+]+^+/+(+_+:+<+'+'+'+'+'+'+'+'+'+'+'+'+'+'+'+'+'+'+'+'+'+'+'+'+'+E.v.a.",
"y.z.$+[+}+|+1+2+3+;+4+5+6+&+'+'+'+'+'+'+'+'+'+'+'+'+'+'+'+'+'+'+'+'+'+'+'+'+'+E.v.a.",
"y.z.$+7+8+8+8+8+8+8+8+8+8+9+'+'+'+'+'+'+'+'+'+'+'+'+'+'+'+'+'+'+'+'+'+'+'+'+'+E.v.a.",
"y.z.B.~ ~ ~ ~ ~ ~ ~ ~ ~ ~ ~ ~ ~ ~ ~ ~ ~ ~ ~ ~ ~ ~ ~ ~ ~ ~ ~ ~ ~ ~ ~ ~ ~ ~ ~ ~ C.v.a.",
"y.z.0+a+b+b+b+b+b+b+b+b+b+b+b+b+b+b+b+b+c+u.u.u.u.u.u.u.u.u.u.u.u.u.u.u.u.u.u.u.v.a.",
"y.z.d+e+f+g+g+g+g+g+g+g+g+g+g+g+h+h+h+i+j+u.k+l+l+l+l+l+l+l+l+l+l+l+l+l+l+l+m+u.v.a.",
"y.z.d+n+v m m m m m m m m m m o+H.H.p+q+r+u.s+r m m m m m m m m m m t+H.H.u+v+u.v.a.",
"y.z.d+w+p+Z.Z.Z.Z.M.x+y+z+v+M.A+-.-.N.B+C+u.h.K.Z.Z.y+.+ +C.q.s+D+9.E+F+-.X.$+u.v.a.",
"y.z.d+w+G+M.M.M.A+R.x+y+H+I+R.-.N.N.T.J+C+u.h.U.M.M.K+9.L+M+N+O+#+P+Q+R+N.`.$+u.v.a.",
"y.z.d+S+Z.W.W.W.u m+B. +D+D+m+m+m+m+k+T+C+u.l+S.W.W.E.C.F+A. + + +D. +U+m+l+$+u.v.a.",
"y.z.V+W+X+Y+Y+Z+`+`+`+`+`+`+`+`+`+`+`+ @.@u.B.+@@@@@@@@@@@@@@@@@@@@@@@@@@@@@C.u.v.a.",
"y.z.#@$@%@%@%@%@%@%@%@%@%@%@%@%@%@%@%@%@&@u.u.u.u.u.u.u.u.u.u.u.u.u.u.u.u.u.u.u.v.a.",
"#+*@=@=@=@=@=@=@=@=@=@=@=@=@=@=@=@=@=@=@=@=@=@=@=@=@=@=@=@=@=@=@=@=@=@=@=@=@=@=@-@;@",
">@,@'@'@'@'@'@'@'@'@'@'@'@'@'@'@'@'@'@'@'@)@)@)@)@)@)@)@)@)@)@)@)@)@)@)@)@)@)@)@!@~@"};
